<svg xmlns="http://www.w3.org/2000/svg" viewBox="0 0 207.9 100"><defs><style>.cls-1{fill:#1c1c1c;}.cls-2{fill:#d6380c;}</style></defs><g id="Camada_2" data-name="Camada 2"><g id="Camada_1-2" data-name="Camada 1"><path class="cls-1" d="M81.63,99.91H78.07V93.62h3.56v.87H79.1V96.2h2.38v.86H79.1v2h2.53Z"/><path class="cls-1" d="M88.88,99.91l-1.83-5.26h0c0,.78.07,1.52.07,2.2v3.06h-.94V93.62h1.46l1.75,5h0l1.8-5h1.46v6.29h-1V96.8c0-.31,0-.72,0-1.22s0-.81,0-.92h0l-1.89,5.25Z"/><path class="cls-1" d="M101.63,95.52A1.83,1.83,0,0,1,101,97a2.84,2.84,0,0,1-1.84.53h-.65v2.35h-1V93.62h1.81a2.75,2.75,0,0,1,1.77.48A1.73,1.73,0,0,1,101.63,95.52Zm-3.14,1.17H99a2,2,0,0,0,1.17-.27,1,1,0,0,0,.37-.87,1,1,0,0,0-.34-.81,1.67,1.67,0,0,0-1-.26h-.71Z"/><path class="cls-1" d="M107.07,97.4v2.51h-1V93.62h1.78a3,3,0,0,1,1.81.45,1.65,1.65,0,0,1,.58,1.38A1.73,1.73,0,0,1,109,97.13l1.78,2.78H109.6l-1.51-2.51Zm0-.85h.72a1.62,1.62,0,0,0,1-.27,1,1,0,0,0,.32-.79.83.83,0,0,0-.35-.77,1.86,1.86,0,0,0-1-.23h-.68Z"/><path class="cls-1" d="M118.4,99.91h-3.56V93.62h3.56v.87h-2.53V96.2h2.37v.86h-2.37v2h2.53Z"/><path class="cls-1" d="M126.49,99.91h-3.57V93.62h3.57v.87H124V96.2h2.38v.86H124v2h2.54Z"/><path class="cls-1" d="M136.25,99.91H135l-3.1-5h0l0,.29c0,.53.06,1,.06,1.46v3.27H131V93.62h1.25l3.09,5h0c0-.07,0-.31,0-.72s0-.74,0-1v-3.3h.94Z"/><path class="cls-1" d="M146.2,96.7a3.14,3.14,0,0,1-.87,2.39,3.48,3.48,0,0,1-2.49.82h-1.76V93.62H143a3.2,3.2,0,0,1,2.34.81A3,3,0,0,1,146.2,96.7Zm-1.09,0c0-1.51-.7-2.26-2.11-2.26h-.89v4.57h.73A2,2,0,0,0,145.11,96.74Z"/><path class="cls-1" d="M150.71,99.91V93.62h1v6.29Z"/><path class="cls-1" d="M159.28,99.91l-1.82-5.26h0c.05.78.08,1.52.08,2.2v3.06h-.94V93.62H158l1.75,5h0l1.8-5H163v6.29h-1V96.8c0-.31,0-.72,0-1.22s0-.81,0-.92h0l-1.89,5.25Z"/><path class="cls-1" d="M171.43,99.91h-3.57V93.62h3.57v.87h-2.54V96.2h2.38v.86h-2.38v2h2.54Z"/><path class="cls-1" d="M181.19,99.91h-1.26l-3.1-5h0l0,.29c0,.53.06,1,.06,1.46v3.27H176V93.62h1.24l3.09,5h0q0-.1,0-.72c0-.42,0-.74,0-1v-3.3h.94Z"/><path class="cls-1" d="M188.19,99.91h-1V94.5h-1.85v-.88H190v.88h-1.85Z"/><path class="cls-1" d="M199.76,96.76a3.47,3.47,0,0,1-.77,2.39,3.23,3.23,0,0,1-4.37,0,3.44,3.44,0,0,1-.76-2.4,3.4,3.4,0,0,1,.77-2.4,3.26,3.26,0,0,1,4.36,0A3.48,3.48,0,0,1,199.76,96.76Zm-4.81,0a2.84,2.84,0,0,0,.47,1.76,1.66,1.66,0,0,0,1.39.6,1.69,1.69,0,0,0,1.39-.59,2.85,2.85,0,0,0,.46-1.77A2.82,2.82,0,0,0,198.2,95a1.64,1.64,0,0,0-1.38-.6,1.68,1.68,0,0,0-1.4.6A2.82,2.82,0,0,0,195,96.76Z"/><path class="cls-1" d="M207.9,98.2a1.58,1.58,0,0,1-.61,1.32,2.61,2.61,0,0,1-1.67.48,4,4,0,0,1-1.75-.33v-1a4.1,4.1,0,0,0,.91.32,3.86,3.86,0,0,0,.91.12,1.47,1.47,0,0,0,.9-.23.79.79,0,0,0,.29-.63.8.8,0,0,0-.27-.6,4.1,4.1,0,0,0-1.1-.58,2.94,2.94,0,0,1-1.21-.79,1.68,1.68,0,0,1-.36-1.08A1.51,1.51,0,0,1,204.5,94a2.36,2.36,0,0,1,1.51-.46,4.51,4.51,0,0,1,1.8.4l-.33.84a4,4,0,0,0-1.5-.35,1.13,1.13,0,0,0-.76.22.7.7,0,0,0-.26.57.82.82,0,0,0,.11.42,1,1,0,0,0,.34.33,5.7,5.7,0,0,0,.85.41,4.61,4.61,0,0,1,1,.54,1.55,1.55,0,0,1,.47.56A1.72,1.72,0,0,1,207.9,98.2Z"/><path class="cls-2" d="M77.42.44H95.23V62.88h38.58V77.39H77.42Z"/><path class="cls-2" d="M154.92,67.5l9.89-11.87c4.18,5.6,8.8,8.46,14.29,8.46,7.15,0,10.89-4.29,10.89-12.75V14.73H162.94V.44h44.74V50.35c0,19-9.56,28.36-27.7,28.36C169.65,78.71,160.52,74.75,154.92,67.5Z"/><path class="cls-1" d="M64,99H46.67V57.86H40.1V86H22.79V52.09H34.33v-12H17V99H0V34.35H11.25V0H52.44V52.09H64Zm-11.6-5.78h5.83V57.86H52.44Zm-46.67,0h5.48V40.12H5.77Zm22.79-13h5.77V57.86H28.56ZM40.1,52.09h6.57V5.77H17V34.35H40.1Z"/><polygon class="cls-2" points="49.55 0 46.67 0 17.02 0 15.97 0 11.25 0 11.25 98.97 17.02 98.97 17.02 5.77 46.67 5.77 46.67 98.97 52.44 98.97 52.44 0 49.55 0"/><rect class="cls-1" x="6.91" y="34.35" width="15.93" height="5.77"/><rect class="cls-1" x="6.91" y="93.19" width="10.09" height="5.77"/><rect class="cls-1" x="46.6" y="52.09" width="5.84" height="46.87"/><rect class="cls-2" x="22.79" y="52.09" width="11.54" height="5.77"/></g></g></svg>